<?xml version='1.0' encoding='utf-8'?>
<svg xmlns="http://www.w3.org/2000/svg" width="128" height="128" version="1.1" viewBox="0 0 33.867 33.867"> <g transform="translate(0 -263.13)"> <circle cx="21.059" cy="282.37" r="11.813" fill="#ffcb43" stroke="#d97516" stroke-linecap="round" stroke-linejoin="round" stroke-width="1.6498" style="paint-order:markers stroke fill"/> <path d="m29.931 284.77c-2.4997 9.5965-16.995 5.3977-13.333-2.9572z" fill="#fff" stroke="#955715" stroke-linecap="round" stroke-linejoin="round" stroke-width=".77646" style="paint-order:normal"/> <g transform="matrix(.90583 .19962 -.19962 .90583 59.753 25.124)"> <ellipse cx="25.257" cy="275.69" rx="2.4054" ry="2.94" fill="#fff" style="paint-order:normal"/> <ellipse cx="24.931" cy="275.93" rx="1.6495" ry="1.7057" fill="#426672" style="paint-order:normal"/> <ellipse cx="25.71" cy="275.5" rx=".5301" ry=".54815" fill="#fff" style="paint-order:normal"/> <ellipse cx="18.123" cy="275.69" rx="2.4054" ry="2.94" fill="#fff" style="paint-order:normal"/> <ellipse cx="17.796" cy="275.93" rx="1.6495" ry="1.7057" fill="#426672" style="paint-order:normal"/> <ellipse cx="18.576" cy="275.5" rx=".5301" ry=".54815" fill="#fff" style="paint-order:normal"/> </g> <path d="m18.249 276.02c1.4748-4.2066 3.7504-3.3067 5.2288-0.73266-2.397-2.4465-4.12-0.48597-5.2288 0.73266z" fill="#955715" opacity=".55" style="paint-order:normal"/> <path d="m26.619 275.67c3.899-1.6235 4.8935 0.54605 4.1864 3.2174-0.22986-3.0545-2.6965-3.0844-4.1864-3.2174z" fill="#955715" opacity=".55" style="paint-order:normal"/> <g transform="matrix(.91502 -.053575 .053575 .91502 105.42 15.177)"> <path d="m-118.61 275.05c6.5306 2.3372 8.0812 8.9014 0.12607 4.5772 8.6231 1.3367 4.9301 9.4856-1.3797 3.797 6.9828 1.6515 4.2787 8.9239-2.0358 4.0086 6.7695 3.4285 0.44839 4.4489-3.8214 2.6938-5.6814-2.3352-5.6651-5.0271-4.7971-6.9919s2.4628-6.4837 4.3518-8.1226c1.7305-1.5014 2.6657-1.3756 2.6657-1.3756 2.5089-2.0903 1.1376-5.627 2.8361-6.6249 1.6315-0.95851 3.2983 0.22251 3.5154 2.6698 0.19295 2.1753-0.5775 3.2958-1.4611 5.3684z" fill="none" stroke="#d97516" stroke-linecap="round" stroke-linejoin="round" stroke-width="1.4" style="paint-order:normal"/> <path d="m-118.61 275.05c6.5306 2.3372 8.0812 8.9014 0.12607 4.5772 8.6231 1.3367 4.9301 9.4856-1.3797 3.797 6.9828 1.6515 4.2787 8.9239-2.0358 4.0086 6.7695 3.4285 0.44839 4.4489-3.8214 2.6938-5.6814-2.3352-5.6651-5.0271-4.7971-6.9919s2.4628-6.4837 4.3518-8.1226c1.7305-1.5014 2.6657-1.3756 2.6657-1.3756 2.5089-2.0903 1.1376-5.627 2.8361-6.6249 1.6315-0.95851 3.2983 0.22251 3.5154 2.6698 0.19295 2.1753-0.5775 3.2958-1.4611 5.3684z" fill="#ffc93b" style="paint-order:normal"/> <path d="m-124.64 286.07c1.6451 0.95113 4.4692 2.5584 5.6847 3.6546-0.0943-0.29973-0.38119-0.65417-0.89889-1.0594 0.61539 0.2658 1.174 0.40053 1.6682 0.42943-1.5462-0.82778-4.4355-2.3182-6.454-3.0246zm2.0588-3.6823 6.563 3.5717c-0.10367-0.21-0.23695-0.41787-0.40116-0.62188 0.38823 0.0737 0.74895 0.0907 1.0733 0.0514zm1.0466-3.9825c2.1916 1.3132 5.2532 2.5232 7.5821 3.4438-0.20714-0.28427-0.47832-0.56052-0.81604-0.81939 0.28037 0.0325 0.52419 0.036 0.73193 7e-3 -2.2306-0.50525-5.2131-1.7834-7.4979-2.6312z" fill="#9d5500" style="paint-order:normal"/> </g> </g> </svg>